<svg width="687" height="611" viewBox="0 0 687 611" fill="none" xmlns="http://www.w3.org/2000/svg">
<path d="M517.498 296.185L347.505 58.1848L347.502 230.203L517.498 296.185Z" fill="url(#paint0_linear_74_1280)"/>
<path d="M346.979 389.19L517.498 302.182L347.502 236.2L346.979 389.19Z" fill="url(#paint1_linear_74_1280)"/>
<path d="M341.503 58.1848L169.5 296.195L341.499 230.203L341.503 58.1848Z" fill="url(#paint2_linear_74_1280)"/>
<path d="M169.5 302.192L341.5 236.2L340.976 389.19L169.5 302.192Z" fill="url(#paint3_linear_74_1280)"/>
<path d="M98.2537 449.815L145.463 549.018H118.509L88.8438 479.002L98.2537 449.815ZM68.2697 539.289C67.1001 542.16 67.2596 544.393 68.7481 545.987C70.2367 547.476 71.8848 548.22 73.6923 548.22H74.9682V549.815H43.0703V548.22C43.0703 548.22 43.283 548.22 43.7083 548.22C44.1336 548.22 44.3462 548.22 44.3462 548.22C46.4728 548.22 48.7056 547.582 51.0448 546.306C53.384 544.924 55.2979 542.585 56.7864 539.289H68.2697ZM98.2537 449.815L98.5727 468.954L63.9635 549.337H52.1612L89.4818 469.113C89.6944 468.475 90.1729 467.359 90.9172 465.764C91.6615 464.063 92.4589 462.202 93.3095 460.182C94.1602 458.055 94.9576 456.088 95.7019 454.281C96.4462 452.367 96.8715 450.878 96.9778 449.815H98.2537ZM112.129 518.555V524.775H71.4595V518.555H112.129ZM114.522 539.289H140.837C142.432 542.585 144.399 544.924 146.739 546.306C149.078 547.582 151.311 548.22 153.437 548.22C153.437 548.22 153.65 548.22 154.075 548.22C154.5 548.22 154.713 548.22 154.713 548.22V549.815H107.823V548.22H109.099C110.907 548.22 112.555 547.476 114.043 545.987C115.532 544.393 115.691 542.16 114.522 539.289Z" fill="#E4AB71"/>
<path d="M189.092 454.121V549.815H166.125V454.121H189.092ZM226.253 543.436L230.081 549.815H188.773V543.436H226.253ZM236.779 520.469L230.559 549.815H202.967L207.912 543.436C212.484 543.436 216.524 542.532 220.033 540.724C223.648 538.81 226.731 536.152 229.283 532.75C231.835 529.241 233.802 525.147 235.184 520.469H236.779ZM166.444 539.767L167.242 549.815H155.439V548.22C155.439 548.22 155.758 548.22 156.396 548.22C157.034 548.22 157.407 548.22 157.513 548.22C159.852 548.22 161.819 547.423 163.414 545.828C165.115 544.127 166.019 542.107 166.125 539.767H166.444ZM188.773 464.169V454.121H199.778V455.716C199.671 455.716 199.299 455.716 198.661 455.716C198.13 455.716 197.864 455.716 197.864 455.716C195.525 455.716 193.504 456.514 191.803 458.109C190.102 459.704 189.198 461.724 189.092 464.169H188.773ZM166.444 464.169H166.125C166.019 461.724 165.115 459.704 163.414 458.109C161.713 456.514 159.693 455.716 157.353 455.716C157.247 455.716 156.875 455.716 156.237 455.716C155.705 455.716 155.439 455.716 155.439 455.716V454.121H166.444V464.169Z" fill="#E4AB71"/>
<path d="M275.067 454.121V549.815H252.1V454.121H275.067ZM312.387 543.436L316.056 549.815H274.748V543.436H312.387ZM306.965 499.257V505.637H274.748V499.257H306.965ZM314.142 454.121V460.501H274.748V454.121H314.142ZM322.595 520.469L316.534 549.815H288.942L293.886 543.436C298.458 543.436 302.499 542.532 306.008 540.724C309.623 538.81 312.706 536.152 315.258 532.75C317.81 529.241 319.777 525.147 321.159 520.469H322.595ZM306.965 505.318V519.353H305.37V518.077C305.37 514.568 304.253 511.644 302.02 509.305C299.894 506.966 296.97 505.743 293.248 505.637V505.318H306.965ZM306.965 485.541V499.576H293.248V499.257C296.97 499.151 299.894 497.928 302.02 495.589C304.253 493.143 305.37 490.166 305.37 486.657V485.541H306.965ZM314.142 460.182V477.088H312.547V475.653C312.547 470.974 311.271 467.306 308.719 464.648C306.273 461.99 302.712 460.607 298.033 460.501V460.182H314.142ZM314.142 451.729V455.557L297.395 454.121C300.479 454.121 303.722 453.856 307.124 453.324C310.527 452.686 312.866 452.154 314.142 451.729ZM252.419 539.767L253.217 549.815H241.414V548.22C241.414 548.22 241.733 548.22 242.371 548.22C243.009 548.22 243.381 548.22 243.488 548.22C245.827 548.22 247.794 547.423 249.389 545.828C251.09 544.127 251.994 542.107 252.1 539.767H252.419ZM252.419 464.169H252.1C251.994 461.724 251.09 459.704 249.389 458.109C247.794 456.514 245.827 455.716 243.488 455.716C243.381 455.716 243.009 455.716 242.371 455.716C241.733 455.716 241.414 455.716 241.414 455.716V454.121H253.217L252.419 464.169Z" fill="#E4AB71"/>
<path d="M376.893 449.815L424.102 549.018H397.148L367.483 479.002L376.893 449.815ZM346.909 539.289C345.74 542.16 345.899 544.393 347.388 545.987C348.876 547.476 350.524 548.22 352.332 548.22H353.608V549.815H321.71V548.22C321.71 548.22 321.923 548.22 322.348 548.22C322.773 548.22 322.986 548.22 322.986 548.22C325.112 548.22 327.345 547.582 329.684 546.306C332.024 544.924 333.937 542.585 335.426 539.289H346.909ZM376.893 449.815L377.212 468.954L342.603 549.337H330.801L368.121 469.113C368.334 468.475 368.813 467.359 369.557 465.764C370.301 464.063 371.099 462.202 371.949 460.182C372.8 458.055 373.597 456.088 374.341 454.281C375.086 452.367 375.511 450.878 375.617 449.815H376.893ZM390.769 518.555V524.775H350.099V518.555H390.769ZM393.161 539.289H419.477C421.072 542.585 423.039 544.924 425.378 546.306C427.717 547.582 429.95 548.22 432.077 548.22C432.077 548.22 432.289 548.22 432.715 548.22C433.14 548.22 433.353 548.22 433.353 548.22V549.815H386.463V548.22H387.739C389.546 548.22 391.194 547.476 392.683 545.987C394.171 544.393 394.331 542.16 393.161 539.289Z" fill="#E4AB71"/>
<path d="M467.093 454.121H484.318C488.678 454.121 492.931 454.6 497.077 455.557C501.224 456.407 504.946 457.843 508.242 459.863C511.538 461.777 514.143 464.435 516.057 467.838C518.077 471.134 519.087 475.28 519.087 480.278C519.087 483.999 518.29 487.721 516.695 491.442C515.206 495.057 512.814 498.194 509.518 500.852C506.328 503.51 502.128 505.264 496.918 506.115C500.001 507.072 502.925 508.933 505.69 511.697C508.561 514.462 510.794 517.067 512.388 519.512C512.814 520.363 513.558 521.745 514.621 523.659C515.685 525.466 517.014 527.593 518.609 530.038C520.31 532.378 522.064 534.823 523.872 537.375C525.998 540.246 527.859 542.479 529.454 544.074C531.049 545.562 532.697 546.625 534.398 547.263C536.099 547.901 538.066 548.22 540.299 548.22V549.815H526.902C521.16 549.815 516.269 549.39 512.229 548.539C508.295 547.689 504.839 546.147 501.862 543.914C498.991 541.575 496.333 538.438 493.888 534.504C492.931 533.122 491.921 531.474 490.857 529.56C489.794 527.54 488.731 525.52 487.668 523.499C486.604 521.479 485.647 519.512 484.797 517.598C484.052 515.684 483.521 514.09 483.202 512.814C481.82 509.411 480.225 506.966 478.417 505.477C476.716 503.882 475.121 503.085 473.632 503.085V501.649C473.632 501.649 474.005 501.649 474.749 501.649C475.493 501.649 476.45 501.649 477.62 501.649C479.853 501.649 482.032 501.277 484.159 500.533C486.392 499.682 488.412 498.141 490.219 495.908C492.027 493.569 493.356 490.166 494.207 485.7C494.419 485.062 494.579 484.159 494.685 482.989C494.898 481.819 494.951 480.49 494.845 479.002C494.632 475.068 493.888 471.931 492.612 469.592C491.442 467.146 489.954 465.339 488.146 464.169C486.338 462.893 484.478 462.043 482.564 461.617C480.756 461.086 479.161 460.82 477.779 460.82C475.759 460.714 473.898 460.714 472.197 460.82C470.602 460.82 469.379 460.767 468.529 460.66C468.423 460.66 468.263 460.129 468.05 459.066C467.838 457.896 467.625 456.78 467.412 455.716C467.2 454.653 467.093 454.121 467.093 454.121ZM468.688 454.121V549.815H445.562V454.121H468.688ZM446.041 539.767L446.679 549.815H435.195V548.22C435.302 548.22 435.568 548.22 435.993 548.22C436.525 548.22 436.897 548.22 437.109 548.22C439.449 548.22 441.416 547.423 443.01 545.828C444.712 544.127 445.615 542.107 445.722 539.767H446.041ZM446.041 464.01H445.722C445.615 461.564 444.712 459.597 443.01 458.109C441.416 456.514 439.502 455.716 437.269 455.716C436.95 455.716 436.525 455.716 435.993 455.716C435.568 455.716 435.302 455.716 435.195 455.716V454.121H446.679L446.041 464.01ZM468.369 539.767H468.688C468.688 542.425 469.592 544.499 471.4 545.987C473.314 547.476 475.334 548.22 477.46 548.22C477.46 548.22 477.673 548.22 478.098 548.22C478.524 548.22 478.842 548.22 479.055 548.22V549.815H467.572L468.369 539.767Z" fill="#E4AB71"/>
<path d="M587.469 449.815L634.678 549.018H607.725L578.06 479.002L587.469 449.815ZM557.485 539.289C556.316 542.16 556.475 544.393 557.964 545.987C559.452 547.476 561.101 548.22 562.908 548.22H564.184V549.815H532.286V548.22C532.286 548.22 532.499 548.22 532.924 548.22C533.349 548.22 533.562 548.22 533.562 548.22C535.688 548.22 537.921 547.582 540.26 546.306C542.6 544.924 544.514 542.585 546.002 539.289H557.485ZM587.469 449.815L587.788 468.954L553.179 549.337H541.377L578.698 469.113C578.91 468.475 579.389 467.359 580.133 465.764C580.877 464.063 581.675 462.202 582.525 460.182C583.376 458.055 584.173 456.088 584.918 454.281C585.662 452.367 586.087 450.878 586.193 449.815H587.469ZM601.345 518.555V524.775H560.675V518.555H601.345ZM603.737 539.289H630.053C631.648 542.585 633.615 544.924 635.954 546.306C638.293 547.582 640.526 548.22 642.653 548.22C642.653 548.22 642.866 548.22 643.291 548.22C643.716 548.22 643.929 548.22 643.929 548.22V549.815H597.039V548.22H598.315C600.122 548.22 601.77 547.476 603.259 545.987C604.747 544.393 604.907 542.16 603.737 539.289Z" fill="#E4AB71"/>
<defs>
<linearGradient id="paint0_linear_74_1280" x1="347.502" y1="143.46" x2="517.498" y2="296.185" gradientUnits="userSpaceOnUse">
<stop stop-color="#F9DAA7"/>
<stop offset="1" stop-color="#884D16"/>
</linearGradient>
<linearGradient id="paint1_linear_74_1280" x1="346.979" y1="236.2" x2="432.238" y2="344.604" gradientUnits="userSpaceOnUse">
<stop stop-color="#865018"/>
<stop offset="1" stop-color="#5A2B05"/>
</linearGradient>
<linearGradient id="paint2_linear_74_1280" x1="341.503" y1="156.722" x2="188.47" y2="268.776" gradientUnits="userSpaceOnUse">
<stop stop-color="#8A4C13"/>
<stop offset="1" stop-color="#71380A"/>
</linearGradient>
<linearGradient id="paint3_linear_74_1280" x1="278.33" y1="261.136" x2="281.498" y2="359.753" gradientUnits="userSpaceOnUse">
<stop stop-color="#512400"/>
<stop offset="1" stop-color="#6C3A0A"/>
</linearGradient>
</defs>
</svg>
