<svg width="568" height="579" viewBox="0 0 568 579" fill="none" xmlns="http://www.w3.org/2000/svg">
<path d="M568 295.933C568 272.13 566.066 254.76 561.882 236.747H289.796V344.182H449.504C446.286 370.882 428.898 411.09 390.258 438.108L389.716 441.705L475.745 508.283L481.705 508.877C536.443 458.375 568 384.069 568 295.933Z" fill="#4285F4"/>
<path d="M289.796 579C368.04 579 433.726 553.265 481.705 508.877L390.258 438.109C365.787 455.157 332.942 467.058 289.796 467.058C213.161 467.058 148.119 416.558 124.933 346.757L121.534 347.045L32.0806 416.204L30.9108 419.452C78.5656 514.022 176.452 579 289.796 579Z" fill="#34A853"/>
<path d="M124.933 346.757C118.815 328.744 115.275 309.442 115.275 289.5C115.275 269.555 118.815 250.256 124.611 232.243L124.449 228.407L33.8743 158.137L30.9108 159.545C11.27 198.789 0 242.858 0 289.5C0 336.142 11.27 380.209 30.9108 419.452L124.933 346.757Z" fill="#FBBC05"/>
<path d="M289.796 111.939C344.212 111.939 380.919 135.421 401.85 155.044L483.636 75.27C433.406 28.6285 368.04 0 289.796 0C176.452 0 78.5656 64.9762 30.9108 159.545L124.611 232.243C148.119 162.442 213.161 111.939 289.796 111.939Z" fill="#EB4335"/>
</svg>
