<svg width="601" height="489" viewBox="0 0 601 489" fill="none" xmlns="http://www.w3.org/2000/svg">
<path d="M471.428 238.005L301.435 0.00537109L301.432 172.024L471.428 238.005Z" fill="url(#paint0_linear_42_13)"/>
<path d="M300.881 325.005L471.4 237.997L301.405 172.015L300.881 325.005Z" fill="url(#paint1_linear_42_13)"/>
<path d="M301.433 0L129.43 238.01L301.429 172.018L301.433 0Z" fill="url(#paint2_linear_42_13)"/>
<path d="M129.433 238.007L301.432 172.015L300.909 325.005L129.433 238.007Z" fill="url(#paint3_linear_42_13)"/>
<path d="M55.1834 388.63L102.393 487.833H75.4387L45.7735 417.817L55.1834 388.63ZM25.1994 478.104C24.0298 480.975 24.1893 483.208 25.6778 484.802C27.1664 486.291 28.8145 487.035 30.622 487.035H31.8979V488.63H0V487.035C0 487.035 0.2127 487.035 0.638 487.035C1.0633 487.035 1.2759 487.035 1.2759 487.035C3.4025 487.035 5.6353 486.397 7.9745 485.121C10.3137 483.739 12.2276 481.4 13.7161 478.104H25.1994ZM55.1834 388.63L55.5024 407.769L20.8932 488.152H9.0909L46.4115 407.928C46.6241 407.29 47.1026 406.174 47.8469 404.579C48.5912 402.878 49.3886 401.017 50.2392 398.997C51.0899 396.87 51.8873 394.903 52.6316 393.096C53.3759 391.182 53.8012 389.693 53.9075 388.63H55.1834ZM69.0587 457.37V463.59H28.3892V457.37H69.0587ZM71.4517 478.104H97.7667C99.3617 481.4 101.329 483.739 103.669 485.121C106.008 486.397 108.241 487.035 110.367 487.035C110.367 487.035 110.58 487.035 111.005 487.035C111.43 487.035 111.643 487.035 111.643 487.035V488.63H64.7527V487.035H66.0287C67.8367 487.035 69.4847 486.291 70.9727 484.802C72.4617 483.208 72.6207 480.975 71.4517 478.104Z" fill="#E4AB71"/>
<path d="M146.022 392.936V488.63H123.055V392.936H146.022ZM183.183 482.251L187.011 488.63H145.703V482.251H183.183ZM193.709 459.284L187.489 488.63H159.897L164.842 482.251C169.414 482.251 173.454 481.347 176.963 479.539C180.578 477.625 183.661 474.967 186.213 471.565C188.765 468.056 190.732 463.962 192.114 459.284H193.709ZM123.374 478.582L124.172 488.63H112.369V487.035C112.369 487.035 112.688 487.035 113.326 487.035C113.964 487.035 114.337 487.035 114.443 487.035C116.782 487.035 118.749 486.238 120.344 484.643C122.045 482.942 122.949 480.922 123.055 478.582H123.374ZM145.703 402.984V392.936H156.708V394.531C156.601 394.531 156.229 394.531 155.591 394.531C155.06 394.531 154.794 394.531 154.794 394.531C152.455 394.531 150.434 395.329 148.733 396.924C147.032 398.519 146.128 400.539 146.022 402.984H145.703ZM123.374 402.984H123.055C122.949 400.539 122.045 398.519 120.344 396.924C118.643 395.329 116.623 394.531 114.283 394.531C114.177 394.531 113.805 394.531 113.167 394.531C112.635 394.531 112.369 394.531 112.369 394.531V392.936H123.374V402.984Z" fill="#E4AB71"/>
<path d="M231.997 392.936V488.63H209.03V392.936H231.997ZM269.317 482.251L272.986 488.63H231.678V482.251H269.317ZM263.895 438.072V444.452H231.678V438.072H263.895ZM271.072 392.936V399.316H231.678V392.936H271.072ZM279.525 459.284L273.464 488.63H245.872L250.816 482.251C255.388 482.251 259.429 481.347 262.938 479.539C266.553 477.625 269.636 474.967 272.188 471.565C274.74 468.056 276.707 463.962 278.089 459.284H279.525ZM263.895 444.133V458.168H262.3V456.892C262.3 453.383 261.183 450.459 258.95 448.12C256.824 445.781 253.9 444.558 250.178 444.452V444.133H263.895ZM263.895 424.356V438.391H250.178V438.072C253.9 437.966 256.824 436.743 258.95 434.404C261.183 431.958 262.3 428.981 262.3 425.472V424.356H263.895ZM271.072 398.997V415.903H269.477V414.468C269.477 409.789 268.201 406.121 265.649 403.463C263.203 400.805 259.642 399.422 254.963 399.316V398.997H271.072ZM271.072 390.544V394.372L254.325 392.936C257.409 392.936 260.652 392.671 264.054 392.139C267.457 391.501 269.796 390.969 271.072 390.544ZM209.349 478.582L210.147 488.63H198.344V487.035C198.344 487.035 198.663 487.035 199.301 487.035C199.939 487.035 200.311 487.035 200.418 487.035C202.757 487.035 204.724 486.238 206.319 484.643C208.02 482.942 208.924 480.922 209.03 478.582H209.349ZM209.349 402.984H209.03C208.924 400.539 208.02 398.519 206.319 396.924C204.724 395.329 202.757 394.531 200.418 394.531C200.311 394.531 199.939 394.531 199.301 394.531C198.663 394.531 198.344 394.531 198.344 394.531V392.936H210.147L209.349 402.984Z" fill="#E4AB71"/>
<path d="M333.823 388.63L381.032 487.833H354.078L324.413 417.817L333.823 388.63ZM303.839 478.104C302.67 480.975 302.829 483.208 304.318 484.802C305.806 486.291 307.454 487.035 309.262 487.035H310.538V488.63H278.64V487.035C278.64 487.035 278.853 487.035 279.278 487.035C279.703 487.035 279.916 487.035 279.916 487.035C282.042 487.035 284.275 486.397 286.614 485.121C288.954 483.739 290.867 481.4 292.356 478.104H303.839ZM333.823 388.63L334.142 407.769L299.533 488.152H287.731L325.051 407.928C325.264 407.29 325.743 406.174 326.487 404.579C327.231 402.878 328.029 401.017 328.879 398.997C329.73 396.87 330.527 394.903 331.271 393.096C332.016 391.182 332.441 389.693 332.547 388.63H333.823ZM347.699 457.37V463.59H307.029V457.37H347.699ZM350.091 478.104H376.407C378.002 481.4 379.969 483.739 382.308 485.121C384.647 486.397 386.88 487.035 389.007 487.035C389.007 487.035 389.219 487.035 389.645 487.035C390.07 487.035 390.283 487.035 390.283 487.035V488.63H343.393V487.035H344.669C346.476 487.035 348.124 486.291 349.613 484.802C351.101 483.208 351.261 480.975 350.091 478.104Z" fill="#E4AB71"/>
<path d="M424.023 392.936H441.248C445.608 392.936 449.861 393.415 454.007 394.372C458.154 395.222 461.876 396.658 465.172 398.678C468.468 400.592 471.073 403.25 472.987 406.653C475.007 409.949 476.017 414.095 476.017 419.093C476.017 422.814 475.22 426.536 473.625 430.257C472.136 433.872 469.744 437.009 466.448 439.667C463.258 442.325 459.058 444.079 453.848 444.93C456.931 445.887 459.855 447.748 462.62 450.512C465.491 453.277 467.724 455.882 469.318 458.327C469.744 459.178 470.488 460.56 471.551 462.474C472.615 464.281 473.944 466.408 475.539 468.853C477.24 471.193 478.994 473.638 480.802 476.19C482.928 479.061 484.789 481.294 486.384 482.889C487.979 484.377 489.627 485.44 491.328 486.078C493.029 486.716 494.996 487.035 497.229 487.035V488.63H483.832C478.09 488.63 473.199 488.205 469.159 487.354C465.225 486.504 461.769 484.962 458.792 482.729C455.921 480.39 453.263 477.253 450.818 473.319C449.861 471.937 448.851 470.289 447.787 468.375C446.724 466.355 445.661 464.335 444.598 462.314C443.534 460.294 442.577 458.327 441.727 456.413C440.982 454.499 440.451 452.905 440.132 451.629C438.75 448.226 437.155 445.781 435.347 444.292C433.646 442.697 432.051 441.9 430.562 441.9V440.464C430.562 440.464 430.935 440.464 431.679 440.464C432.423 440.464 433.38 440.464 434.55 440.464C436.783 440.464 438.962 440.092 441.089 439.348C443.322 438.497 445.342 436.956 447.149 434.723C448.957 432.384 450.286 428.981 451.137 424.515C451.349 423.877 451.509 422.974 451.615 421.804C451.828 420.634 451.881 419.305 451.775 417.817C451.562 413.883 450.818 410.746 449.542 408.407C448.372 405.961 446.884 404.154 445.076 402.984C443.268 401.708 441.408 400.858 439.494 400.432C437.686 399.901 436.091 399.635 434.709 399.635C432.689 399.529 430.828 399.529 429.127 399.635C427.532 399.635 426.309 399.582 425.459 399.475C425.353 399.475 425.193 398.944 424.98 397.881C424.768 396.711 424.555 395.595 424.342 394.531C424.13 393.468 424.023 392.936 424.023 392.936ZM425.618 392.936V488.63H402.492V392.936H425.618ZM402.971 478.582L403.609 488.63H392.125V487.035C392.232 487.035 392.498 487.035 392.923 487.035C393.455 487.035 393.827 487.035 394.039 487.035C396.379 487.035 398.346 486.238 399.94 484.643C401.642 482.942 402.545 480.922 402.652 478.582H402.971ZM402.971 402.825H402.652C402.545 400.379 401.642 398.412 399.94 396.924C398.346 395.329 396.432 394.531 394.199 394.531C393.88 394.531 393.455 394.531 392.923 394.531C392.498 394.531 392.232 394.531 392.125 394.531V392.936H403.609L402.971 402.825ZM425.299 478.582H425.618C425.618 481.24 426.522 483.314 428.33 484.802C430.244 486.291 432.264 487.035 434.39 487.035C434.39 487.035 434.603 487.035 435.028 487.035C435.454 487.035 435.772 487.035 435.985 487.035V488.63H424.502L425.299 478.582Z" fill="#E4AB71"/>
<path d="M544.399 388.63L591.608 487.833H564.655L534.99 417.817L544.399 388.63ZM514.415 478.104C513.246 480.975 513.405 483.208 514.894 484.802C516.382 486.291 518.031 487.035 519.838 487.035H521.114V488.63H489.216V487.035C489.216 487.035 489.429 487.035 489.854 487.035C490.279 487.035 490.492 487.035 490.492 487.035C492.618 487.035 494.851 486.397 497.19 485.121C499.53 483.739 501.444 481.4 502.932 478.104H514.415ZM544.399 388.63L544.718 407.769L510.109 488.152H498.307L535.628 407.928C535.84 407.29 536.319 406.174 537.063 404.579C537.807 402.878 538.605 401.017 539.455 398.997C540.306 396.87 541.103 394.903 541.848 393.096C542.592 391.182 543.017 389.693 543.123 388.63H544.399ZM558.275 457.37V463.59H517.605V457.37H558.275ZM560.667 478.104H586.983C588.578 481.4 590.545 483.739 592.884 485.121C595.223 486.397 597.456 487.035 599.583 487.035C599.583 487.035 599.796 487.035 600.221 487.035C600.646 487.035 600.859 487.035 600.859 487.035V488.63H553.969V487.035H555.245C557.052 487.035 558.7 486.291 560.189 484.802C561.677 483.208 561.837 480.975 560.667 478.104Z" fill="#E4AB71"/>
<defs>
<linearGradient id="paint0_linear_42_13" x1="301.432" y1="85.2802" x2="471.428" y2="238.005" gradientUnits="userSpaceOnUse">
<stop stop-color="#F9DAA7"/>
<stop offset="1" stop-color="#884D16"/>
</linearGradient>
<linearGradient id="paint1_linear_42_13" x1="300.881" y1="172.015" x2="386.141" y2="280.419" gradientUnits="userSpaceOnUse">
<stop stop-color="#865018"/>
<stop offset="1" stop-color="#5A2B05"/>
</linearGradient>
<linearGradient id="paint2_linear_42_13" x1="301.433" y1="98.5372" x2="148.4" y2="210.591" gradientUnits="userSpaceOnUse">
<stop stop-color="#8A4C13"/>
<stop offset="1" stop-color="#71380A"/>
</linearGradient>
<linearGradient id="paint3_linear_42_13" x1="238.263" y1="196.951" x2="241.431" y2="295.568" gradientUnits="userSpaceOnUse">
<stop stop-color="#512400"/>
<stop offset="1" stop-color="#6C3A0A"/>
</linearGradient>
</defs>
</svg>
