<svg width="601" height="493" viewBox="0 0 601 493" fill="none" xmlns="http://www.w3.org/2000/svg">
<path d="M475.428 238.005L305.435 0.00537109L305.432 172.024L475.428 238.005Z" fill="url(#paint0_linear_44_32)"/>
<path d="M304.881 333.005L475.4 245.997L305.405 180.015L304.881 333.005Z" fill="url(#paint1_linear_44_32)"/>
<path d="M297.433 0L125.43 238.01L297.429 172.018L297.433 0Z" fill="url(#paint2_linear_44_32)"/>
<path d="M125.433 246.007L297.432 180.015L296.909 333.005L125.433 246.007Z" fill="url(#paint3_linear_44_32)"/>
<path d="M55.1834 392.63L102.393 491.833H75.4387L45.7735 421.817L55.1834 392.63ZM25.1994 482.104C24.0298 484.975 24.1893 487.208 25.6778 488.802C27.1664 490.291 28.8145 491.035 30.622 491.035H31.8979V492.63H0V491.035C0 491.035 0.2127 491.035 0.638 491.035C1.0633 491.035 1.2759 491.035 1.2759 491.035C3.4025 491.035 5.6353 490.397 7.9745 489.121C10.3137 487.739 12.2276 485.4 13.7161 482.104H25.1994ZM55.1834 392.63L55.5024 411.769L20.8932 492.152H9.0909L46.4115 411.928C46.6241 411.29 47.1026 410.174 47.8469 408.579C48.5912 406.878 49.3886 405.017 50.2392 402.997C51.0899 400.87 51.8873 398.903 52.6316 397.096C53.3759 395.182 53.8012 393.693 53.9075 392.63H55.1834ZM69.0587 461.37V467.59H28.3892V461.37H69.0587ZM71.4517 482.104H97.7667C99.3617 485.4 101.329 487.739 103.669 489.121C106.008 490.397 108.241 491.035 110.367 491.035C110.367 491.035 110.58 491.035 111.005 491.035C111.43 491.035 111.643 491.035 111.643 491.035V492.63H64.7527V491.035H66.0287C67.8367 491.035 69.4847 490.291 70.9727 488.802C72.4617 487.208 72.6207 484.975 71.4517 482.104Z" fill="#E4AB71"/>
<path d="M146.022 396.936V492.63H123.055V396.936H146.022ZM183.183 486.251L187.011 492.63H145.703V486.251H183.183ZM193.709 463.284L187.489 492.63H159.897L164.842 486.251C169.414 486.251 173.454 485.347 176.963 483.539C180.578 481.625 183.661 478.967 186.213 475.565C188.765 472.056 190.732 467.962 192.114 463.284H193.709ZM123.374 482.582L124.172 492.63H112.369V491.035C112.369 491.035 112.688 491.035 113.326 491.035C113.964 491.035 114.337 491.035 114.443 491.035C116.782 491.035 118.749 490.238 120.344 488.643C122.045 486.942 122.949 484.922 123.055 482.582H123.374ZM145.703 406.984V396.936H156.708V398.531C156.601 398.531 156.229 398.531 155.591 398.531C155.06 398.531 154.794 398.531 154.794 398.531C152.455 398.531 150.434 399.329 148.733 400.924C147.032 402.519 146.128 404.539 146.022 406.984H145.703ZM123.374 406.984H123.055C122.949 404.539 122.045 402.519 120.344 400.924C118.643 399.329 116.623 398.531 114.283 398.531C114.177 398.531 113.805 398.531 113.167 398.531C112.635 398.531 112.369 398.531 112.369 398.531V396.936H123.374V406.984Z" fill="#E4AB71"/>
<path d="M231.997 396.936V492.63H209.03V396.936H231.997ZM269.317 486.251L272.986 492.63H231.678V486.251H269.317ZM263.895 442.072V448.452H231.678V442.072H263.895ZM271.072 396.936V403.316H231.678V396.936H271.072ZM279.525 463.284L273.464 492.63H245.872L250.816 486.251C255.388 486.251 259.429 485.347 262.938 483.539C266.553 481.625 269.636 478.967 272.188 475.565C274.74 472.056 276.707 467.962 278.089 463.284H279.525ZM263.895 448.133V462.168H262.3V460.892C262.3 457.383 261.183 454.459 258.95 452.12C256.824 449.781 253.9 448.558 250.178 448.452V448.133H263.895ZM263.895 428.356V442.391H250.178V442.072C253.9 441.966 256.824 440.743 258.95 438.404C261.183 435.958 262.3 432.981 262.3 429.472V428.356H263.895ZM271.072 402.997V419.903H269.477V418.468C269.477 413.789 268.201 410.121 265.649 407.463C263.203 404.805 259.642 403.422 254.963 403.316V402.997H271.072ZM271.072 394.544V398.372L254.325 396.936C257.409 396.936 260.652 396.671 264.054 396.139C267.457 395.501 269.796 394.969 271.072 394.544ZM209.349 482.582L210.147 492.63H198.344V491.035C198.344 491.035 198.663 491.035 199.301 491.035C199.939 491.035 200.311 491.035 200.418 491.035C202.757 491.035 204.724 490.238 206.319 488.643C208.02 486.942 208.924 484.922 209.03 482.582H209.349ZM209.349 406.984H209.03C208.924 404.539 208.02 402.519 206.319 400.924C204.724 399.329 202.757 398.531 200.418 398.531C200.311 398.531 199.939 398.531 199.301 398.531C198.663 398.531 198.344 398.531 198.344 398.531V396.936H210.147L209.349 406.984Z" fill="#E4AB71"/>
<path d="M333.823 392.63L381.032 491.833H354.078L324.413 421.817L333.823 392.63ZM303.839 482.104C302.67 484.975 302.829 487.208 304.318 488.802C305.806 490.291 307.454 491.035 309.262 491.035H310.538V492.63H278.64V491.035C278.64 491.035 278.853 491.035 279.278 491.035C279.703 491.035 279.916 491.035 279.916 491.035C282.042 491.035 284.275 490.397 286.614 489.121C288.954 487.739 290.867 485.4 292.356 482.104H303.839ZM333.823 392.63L334.142 411.769L299.533 492.152H287.731L325.051 411.928C325.264 411.29 325.743 410.174 326.487 408.579C327.231 406.878 328.029 405.017 328.879 402.997C329.73 400.87 330.527 398.903 331.271 397.096C332.016 395.182 332.441 393.693 332.547 392.63H333.823ZM347.699 461.37V467.59H307.029V461.37H347.699ZM350.091 482.104H376.407C378.002 485.4 379.969 487.739 382.308 489.121C384.647 490.397 386.88 491.035 389.007 491.035C389.007 491.035 389.219 491.035 389.645 491.035C390.07 491.035 390.283 491.035 390.283 491.035V492.63H343.393V491.035H344.669C346.476 491.035 348.124 490.291 349.613 488.802C351.101 487.208 351.261 484.975 350.091 482.104Z" fill="#E4AB71"/>
<path d="M424.023 396.936H441.248C445.608 396.936 449.861 397.415 454.007 398.372C458.154 399.222 461.876 400.658 465.172 402.678C468.468 404.592 471.073 407.25 472.987 410.653C475.007 413.949 476.017 418.095 476.017 423.093C476.017 426.814 475.22 430.536 473.625 434.257C472.136 437.872 469.744 441.009 466.448 443.667C463.258 446.325 459.058 448.079 453.848 448.93C456.931 449.887 459.855 451.748 462.62 454.512C465.491 457.277 467.724 459.882 469.318 462.327C469.744 463.178 470.488 464.56 471.551 466.474C472.615 468.281 473.944 470.408 475.539 472.853C477.24 475.193 478.994 477.638 480.802 480.19C482.928 483.061 484.789 485.294 486.384 486.889C487.979 488.377 489.627 489.44 491.328 490.078C493.029 490.716 494.996 491.035 497.229 491.035V492.63H483.832C478.09 492.63 473.199 492.205 469.159 491.354C465.225 490.504 461.769 488.962 458.792 486.729C455.921 484.39 453.263 481.253 450.818 477.319C449.861 475.937 448.851 474.289 447.787 472.375C446.724 470.355 445.661 468.335 444.598 466.314C443.534 464.294 442.577 462.327 441.727 460.413C440.982 458.499 440.451 456.905 440.132 455.629C438.75 452.226 437.155 449.781 435.347 448.292C433.646 446.697 432.051 445.9 430.562 445.9V444.464C430.562 444.464 430.935 444.464 431.679 444.464C432.423 444.464 433.38 444.464 434.55 444.464C436.783 444.464 438.962 444.092 441.089 443.348C443.322 442.497 445.342 440.956 447.149 438.723C448.957 436.384 450.286 432.981 451.137 428.515C451.349 427.877 451.509 426.974 451.615 425.804C451.828 424.634 451.881 423.305 451.775 421.817C451.562 417.883 450.818 414.746 449.542 412.407C448.372 409.961 446.884 408.154 445.076 406.984C443.268 405.708 441.408 404.858 439.494 404.432C437.686 403.901 436.091 403.635 434.709 403.635C432.689 403.529 430.828 403.529 429.127 403.635C427.532 403.635 426.309 403.582 425.459 403.475C425.353 403.475 425.193 402.944 424.98 401.881C424.768 400.711 424.555 399.595 424.342 398.531C424.13 397.468 424.023 396.936 424.023 396.936ZM425.618 396.936V492.63H402.492V396.936H425.618ZM402.971 482.582L403.609 492.63H392.125V491.035C392.232 491.035 392.498 491.035 392.923 491.035C393.455 491.035 393.827 491.035 394.039 491.035C396.379 491.035 398.346 490.238 399.94 488.643C401.642 486.942 402.545 484.922 402.652 482.582H402.971ZM402.971 406.825H402.652C402.545 404.379 401.642 402.412 399.94 400.924C398.346 399.329 396.432 398.531 394.199 398.531C393.88 398.531 393.455 398.531 392.923 398.531C392.498 398.531 392.232 398.531 392.125 398.531V396.936H403.609L402.971 406.825ZM425.299 482.582H425.618C425.618 485.24 426.522 487.314 428.33 488.802C430.244 490.291 432.264 491.035 434.39 491.035C434.39 491.035 434.603 491.035 435.028 491.035C435.454 491.035 435.772 491.035 435.985 491.035V492.63H424.502L425.299 482.582Z" fill="#E4AB71"/>
<path d="M544.399 392.63L591.608 491.833H564.655L534.99 421.817L544.399 392.63ZM514.415 482.104C513.246 484.975 513.405 487.208 514.894 488.802C516.382 490.291 518.031 491.035 519.838 491.035H521.114V492.63H489.216V491.035C489.216 491.035 489.429 491.035 489.854 491.035C490.279 491.035 490.492 491.035 490.492 491.035C492.618 491.035 494.851 490.397 497.19 489.121C499.53 487.739 501.444 485.4 502.932 482.104H514.415ZM544.399 392.63L544.718 411.769L510.109 492.152H498.307L535.628 411.928C535.84 411.29 536.319 410.174 537.063 408.579C537.807 406.878 538.605 405.017 539.455 402.997C540.306 400.87 541.103 398.903 541.848 397.096C542.592 395.182 543.017 393.693 543.123 392.63H544.399ZM558.275 461.37V467.59H517.605V461.37H558.275ZM560.667 482.104H586.983C588.578 485.4 590.545 487.739 592.884 489.121C595.223 490.397 597.456 491.035 599.583 491.035C599.583 491.035 599.796 491.035 600.221 491.035C600.646 491.035 600.859 491.035 600.859 491.035V492.63H553.969V491.035H555.245C557.052 491.035 558.7 490.291 560.189 488.802C561.677 487.208 561.837 484.975 560.667 482.104Z" fill="#E4AB71"/>
<defs>
<linearGradient id="paint0_linear_44_32" x1="7.76325e-06" y1="176.508" x2="323.786" y2="673.237" gradientUnits="userSpaceOnUse">
<stop stop-color="#F9DAA7"/>
<stop offset="1" stop-color="#884D16"/>
</linearGradient>
<linearGradient id="paint1_linear_44_32" x1="0" y1="0" x2="267.756" y2="372.547" gradientUnits="userSpaceOnUse">
<stop stop-color="#865018"/>
<stop offset="1" stop-color="#5A2B05"/>
</linearGradient>
<linearGradient id="paint2_linear_44_32" x1="600.859" y1="203.951" x2="275.915" y2="605.521" gradientUnits="userSpaceOnUse">
<stop stop-color="#8A4C13"/>
<stop offset="1" stop-color="#71380A"/>
</linearGradient>
<linearGradient id="paint3_linear_44_32" x1="380.185" y1="80.2943" x2="389.59" y2="397.892" gradientUnits="userSpaceOnUse">
<stop stop-color="#512400"/>
<stop offset="1" stop-color="#6C3A0A"/>
</linearGradient>
</defs>
</svg>
